[Title] Rigid Paradise (Solo Strings)
[Source] ZUN
[Compose Rank] 6 (613/445/195)
[Editor] Cyris and Kuro

MML@
r8o2a8a8.&a32>c+32dc+<a+8agaea8a8.&a32>c+32dc+l8<a+a1aa>d<a4an37al4agael8aa>d<a4an37aan37a>c+d<a>e<a>dadadadadadadadan34fn34fn34fn34fn34fn34fcgcgdadadadadadadadan34fn34fn34fn34fl4n34fffc8c8.&c32e32fec+8cn34c<g>c8c8.&c32e32fec+8ccl8ecgcfb+fb+fb+fb+fb+fb+fb+fb+c+g+c+g+c+g+c+g+c+g+c+g+d+a+d+a+fb+fb+fb+fb+fb+fb+fb+fb+c+g+c+g+c+g+c+g+c+g+c+g+d+a+d+a+c+g+c+g+c+g+c+g+d+a+d+a+d+a+d+a+fb+fb+fb+fb+fb+fb+fb+fb+c+g+c+g+c+g+c+g+d+a+d+a+d+a+d+a+fb+fb+fb+fb+fb+fb+fb+fb+c+g+c+g+c+g+c+g+d+a+d+a+d+a+d+a+fb+fb+fb+fb+fb+fb+fb+fb+c+g+c+g+c+g+c+g+d+a+d+a+d+a+d+a+fb+fb+fb+fb+fb+fb+fb+f
,
l8raa.l32&a>c+l4dc+<a+8agaea8a8.&a32>c+32dc+l8<a+a1aa.l32&a>c+l4dc+<a+8agaea8a8.&a32>c+32dc+<a+8a>c+del8fdecd<f>cdd<a>ecfcegfdecd<f>cdd<a>ecfcegfdecd<f>cdd<a>ecfcegfdecd<f>cdd1cc.l32&cel4fec+8cn58c<g>c8c8.&c32e32fec+8cefgl8g+fgcfn56c<g>fcgn58g+d+ga+g+fgn58fn56c<g>fcgn58g+d+ga+g+fgn58fn56c<g>fcgn58g+d+ga+g+fgn58fn56c<g>fcgn58g+d+gl1.a+rrrrrrr2l8n75f1ff.l32&fbl4b+a+g+8gd+n58d+f1.
,
l1.rrrrrrrrrrrrrr1r8>f1l4a+b+2.f1d+cf2a+2b+2a+n75a+1&a+2g+gf8f8.&f32b32b+a+g+8gd+n58d+f8f8.l32&fbb+4a+4>d+8<f1f8f8.&fbl4b+a+g+8gd+n58d+f8f1&f.l8fgd+gff.l32&fbl4b+a+g+8gd+n58d+f8f8.l32&fbb+4a+4
;
 